<svg xmlns="http://www.w3.org/2000/svg" width="308.6" height="35" viewBox="0 0 308.6 35"><rect class="svg__rect" x="0" y="0" width="127.25" height="35" fill="#000000"/><rect class="svg__rect" x="125.25" y="0" width="183.35" height="35" fill="#5A0099"/><path class="svg__text" d="M15.70 22L14.22 22L14.22 13.47L17.48 13.47Q18.91 13.47 19.75 14.21Q20.59 14.96 20.59 16.18L20.59 16.18Q20.59 17.44 19.77 18.13Q18.95 18.83 17.46 18.83L17.46 18.83L15.70 18.83L15.70 22ZM15.70 14.66L15.70 17.64L17.48 17.64Q18.27 17.64 18.69 17.27Q19.10 16.90 19.10 16.19L19.10 16.19Q19.10 15.50 18.68 15.09Q18.26 14.68 17.52 14.66L17.52 14.66L15.70 14.66ZM24.61 18.00L24.61 18.00L24.61 17.52Q24.61 16.28 25.05 15.32Q25.49 14.37 26.30 13.86Q27.10 13.35 28.14 13.35Q29.19 13.35 29.99 13.85Q30.80 14.35 31.24 15.29Q31.68 16.23 31.68 17.48L31.68 17.48L31.68 17.96Q31.68 19.21 31.25 20.16Q30.82 21.10 30.01 21.61Q29.21 22.12 28.16 22.12L28.16 22.12Q27.12 22.12 26.31 21.61Q25.50 21.10 25.05 20.17Q24.61 19.23 24.61 18.00ZM26.09 17.46L26.09 17.96Q26.09 19.36 26.64 20.13Q27.18 20.90 28.16 20.90L28.16 20.90Q29.14 20.90 29.67 20.15Q30.20 19.40 30.20 17.96L30.20 17.96L30.20 17.51Q30.20 16.09 29.67 15.34Q29.13 14.58 28.14 14.58L28.14 14.58Q27.18 14.58 26.64 15.33Q26.10 16.09 26.09 17.46L26.09 17.46ZM37.53 22L35.56 13.47L37.03 13.47L38.36 19.88L39.99 13.47L41.23 13.47L42.84 19.89L44.15 13.47L45.62 13.47L43.65 22L42.24 22L40.61 15.77L38.96 22L37.53 22ZM55.27 22L49.70 22L49.70 13.47L55.23 13.47L55.23 14.66L51.18 14.66L51.18 17.02L54.68 17.02L54.68 18.19L51.18 18.19L51.18 20.82L55.27 20.82L55.27 22ZM60.95 22L59.47 22L59.47 13.47L62.47 13.47Q63.95 13.47 64.75 14.13Q65.55 14.79 65.55 16.05L65.55 16.05Q65.55 16.90 65.14 17.48Q64.72 18.06 63.99 18.37L63.99 18.37L65.90 21.92L65.90 22L64.31 22L62.60 18.71L60.95 18.71L60.95 22ZM60.95 14.66L60.95 17.52L62.48 17.52Q63.23 17.52 63.65 17.15Q64.07 16.77 64.07 16.11L64.07 16.11Q64.07 15.43 63.68 15.05Q63.29 14.68 62.52 14.66L62.52 14.66L60.95 14.66ZM75.52 22L69.95 22L69.95 13.47L75.48 13.47L75.48 14.66L71.43 14.66L71.43 17.02L74.93 17.02L74.93 18.19L71.43 18.19L71.43 20.82L75.52 20.82L75.52 22ZM82.17 22L79.72 22L79.72 13.47L82.24 13.47Q83.37 13.47 84.25 13.97Q85.12 14.48 85.60 15.40Q86.08 16.33 86.08 17.52L86.08 17.52L86.08 17.95Q86.08 19.16 85.60 20.08Q85.12 21.00 84.22 21.50Q83.33 22 82.17 22L82.17 22ZM81.20 14.66L81.20 20.82L82.17 20.82Q83.33 20.82 83.96 20.09Q84.58 19.36 84.59 17.99L84.59 17.99L84.59 17.52Q84.59 16.13 83.99 15.40Q83.39 14.66 82.24 14.66L82.24 14.66L81.20 14.66ZM99.64 22L96.52 22L96.52 13.47L99.45 13.47Q100.89 13.47 101.65 14.05Q102.41 14.63 102.41 15.78L102.41 15.78Q102.41 16.36 102.09 16.83Q101.77 17.30 101.16 17.56L101.16 17.56Q101.86 17.75 102.23 18.26Q102.61 18.78 102.61 19.51L102.61 19.51Q102.61 20.71 101.84 21.36Q101.07 22 99.64 22L99.64 22ZM98.01 18.15L98.01 20.82L99.65 20.82Q100.35 20.82 100.74 20.47Q101.14 20.13 101.14 19.51L101.14 19.51Q101.14 18.18 99.78 18.15L99.78 18.15L98.01 18.15ZM98.01 14.66L98.01 17.06L99.46 17.06Q100.15 17.06 100.54 16.75Q100.93 16.43 100.93 15.86L100.93 15.86Q100.93 15.23 100.57 14.95Q100.21 14.66 99.45 14.66L99.45 14.66L98.01 14.66ZM109.12 18.86L106.26 13.47L107.90 13.47L109.87 17.51L111.83 13.47L113.47 13.47L110.61 18.86L110.61 22L109.12 22L109.12 18.86Z" fill="#FFFFFF"/><path class="svg__text" d="M138.85 21.24L138.85 21.24L139.63 19.49Q140.19 19.86 140.94 20.09Q141.68 20.32 142.40 20.32L142.40 20.32Q143.77 20.32 143.77 19.64L143.77 19.64Q143.77 19.28 143.38 19.11Q142.99 18.93 142.13 18.74L142.13 18.74Q141.18 18.53 140.54 18.30Q139.91 18.06 139.45 17.55Q139.00 17.03 139.00 16.16L139.00 16.16Q139.00 15.39 139.42 14.77Q139.84 14.15 140.67 13.79Q141.51 13.43 142.71 13.43L142.71 13.43Q143.54 13.43 144.35 13.62Q145.15 13.80 145.77 14.17L145.77 14.17L145.03 15.93Q143.83 15.28 142.70 15.28L142.70 15.28Q141.99 15.28 141.67 15.49Q141.35 15.70 141.35 16.04L141.35 16.04Q141.35 16.37 141.73 16.54Q142.12 16.71 142.97 16.89L142.97 16.89Q143.93 17.10 144.56 17.33Q145.19 17.56 145.65 18.07Q146.11 18.58 146.11 19.46L146.11 19.46Q146.11 20.21 145.69 20.83Q145.27 21.44 144.43 21.80Q143.59 22.17 142.39 22.17L142.39 22.17Q141.37 22.17 140.41 21.92Q139.45 21.67 138.85 21.24ZM153.07 22L150.69 22L150.69 13.60L154.53 13.60Q155.67 13.60 156.51 13.98Q157.35 14.35 157.81 15.06Q158.26 15.76 158.26 16.71L158.26 16.71Q158.26 17.66 157.81 18.35Q157.35 19.05 156.51 19.42Q155.67 19.80 154.53 19.80L154.53 19.80L153.07 19.80L153.07 22ZM153.07 15.47L153.07 17.93L154.39 17.93Q155.12 17.93 155.49 17.61Q155.86 17.29 155.86 16.71L155.86 16.71Q155.86 16.12 155.49 15.80Q155.12 15.47 154.39 15.47L154.39 15.47L153.07 15.47ZM164.43 22L162.01 22L165.72 13.60L168.06 13.60L171.78 22L169.31 22L168.65 20.37L165.10 20.37L164.43 22ZM166.87 15.93L165.79 18.61L167.95 18.61L166.87 15.93ZM175.50 17.80L175.50 17.80Q175.50 16.54 176.10 15.54Q176.70 14.55 177.77 13.99Q178.84 13.43 180.18 13.43L180.18 13.43Q181.36 13.43 182.29 13.83Q183.23 14.22 183.85 14.97L183.85 14.97L182.34 16.33Q181.50 15.40 180.32 15.40L180.32 15.40Q180.31 15.40 180.30 15.40L180.30 15.40Q179.22 15.40 178.56 16.06Q177.90 16.71 177.90 17.80L177.90 17.80Q177.90 18.50 178.20 19.04Q178.50 19.59 179.04 19.89Q179.58 20.20 180.28 20.20L180.28 20.20Q180.96 20.20 181.56 19.93L181.56 19.93L181.56 17.62L183.66 17.62L183.66 21.10Q182.94 21.61 182.00 21.89Q181.07 22.17 180.13 22.17L180.13 22.17Q178.81 22.17 177.76 21.61Q176.70 21.05 176.10 20.05Q175.50 19.06 175.50 17.80ZM191.03 22L188.65 22L188.65 13.60L191.03 13.60L191.03 16.76L194.27 16.76L194.27 13.60L196.64 13.60L196.64 22L194.27 22L194.27 18.72L191.03 18.72L191.03 22ZM208.55 22L201.81 22L201.81 13.60L208.40 13.60L208.40 15.44L204.16 15.44L204.16 16.85L207.89 16.85L207.89 18.63L204.16 18.63L204.16 20.17L208.55 20.17L208.55 22ZM215.15 15.48L212.56 15.48L212.56 13.60L220.09 13.60L220.09 15.48L217.52 15.48L217.52 22L215.15 22L215.15 15.48ZM226.25 15.48L223.67 15.48L223.67 13.60L231.19 13.60L231.19 15.48L228.62 15.48L228.62 22L226.25 22L226.25 15.48ZM237.94 22L235.56 22L235.56 13.60L237.94 13.60L237.94 22ZM249.66 17.80L249.66 17.80Q249.66 16.54 250.26 15.54Q250.85 14.55 251.91 13.99Q252.96 13.43 254.28 13.43L254.28 13.43Q255.43 13.43 256.35 13.84Q257.28 14.25 257.89 15.02L257.89 15.02L256.38 16.39Q255.56 15.40 254.40 15.40L254.40 15.40Q253.71 15.40 253.18 15.70Q252.65 16 252.35 16.54Q252.06 17.09 252.06 17.80L252.06 17.80Q252.06 18.51 252.35 19.05Q252.65 19.60 253.18 19.90Q253.71 20.20 254.40 20.20L254.40 20.20Q255.56 20.20 256.38 19.22L256.38 19.22L257.89 20.58Q257.28 21.35 256.36 21.76Q255.43 22.17 254.28 22.17L254.28 22.17Q252.96 22.17 251.91 21.61Q250.85 21.05 250.26 20.05Q249.66 19.06 249.66 17.80ZM262.00 17.80L262.00 17.80Q262.00 16.55 262.60 15.55Q263.21 14.56 264.27 14.00Q265.33 13.43 266.66 13.43L266.66 13.43Q267.99 13.43 269.06 14.00Q270.12 14.56 270.73 15.55Q271.33 16.55 271.33 17.80L271.33 17.80Q271.33 19.05 270.73 20.04Q270.12 21.04 269.06 21.60Q268.00 22.17 266.66 22.17L266.66 22.17Q265.33 22.17 264.27 21.60Q263.21 21.04 262.60 20.04Q262.00 19.05 262.00 17.80ZM264.39 17.80L264.39 17.80Q264.39 18.51 264.70 19.05Q265.00 19.60 265.51 19.90Q266.03 20.20 266.66 20.20L266.66 20.20Q267.30 20.20 267.82 19.90Q268.33 19.60 268.63 19.05Q268.93 18.51 268.93 17.80L268.93 17.80Q268.93 17.09 268.63 16.54Q268.33 16 267.82 15.70Q267.30 15.40 266.66 15.40L266.66 15.40Q266.02 15.40 265.51 15.70Q265.00 16 264.70 16.54Q264.39 17.09 264.39 17.80ZM280.03 22L276.06 22L276.06 13.60L280.03 13.60Q281.42 13.60 282.48 14.12Q283.55 14.63 284.14 15.58Q284.73 16.53 284.73 17.80L284.73 17.80Q284.73 19.07 284.14 20.02Q283.55 20.97 282.48 21.48Q281.42 22 280.03 22L280.03 22ZM278.44 15.50L278.44 20.10L279.94 20.10Q281.02 20.10 281.67 19.49Q282.32 18.88 282.32 17.80L282.32 17.80Q282.32 16.72 281.67 16.11Q281.02 15.50 279.94 15.50L279.94 15.50L278.44 15.50ZM296.20 22L289.46 22L289.46 13.60L296.05 13.60L296.05 15.44L291.81 15.44L291.81 16.85L295.54 16.85L295.54 18.63L291.81 18.63L291.81 20.17L296.20 20.17L296.20 22Z" fill="#FFFFFF" x="138.25"/></svg>