<svg xmlns="http://www.w3.org/2000/svg" width="275.42" height="35" viewBox="0 0 275.42 35"><rect class="svg__rect" x="0" y="0" width="127.25" height="35" fill="#000000"/><rect class="svg__rect" x="125.25" y="0" width="150.17000000000002" height="35" fill="#5A0099"/><path class="svg__text" d="M15.70 22L14.22 22L14.22 13.47L17.48 13.47Q18.91 13.47 19.75 14.21Q20.59 14.96 20.59 16.18L20.59 16.18Q20.59 17.44 19.77 18.13Q18.95 18.83 17.46 18.83L17.46 18.83L15.70 18.83L15.70 22ZM15.70 14.66L15.70 17.64L17.48 17.64Q18.27 17.64 18.69 17.27Q19.10 16.90 19.10 16.19L19.10 16.19Q19.10 15.50 18.68 15.09Q18.26 14.68 17.52 14.66L17.52 14.66L15.70 14.66ZM24.61 18.00L24.61 18.00L24.61 17.52Q24.61 16.28 25.05 15.32Q25.49 14.37 26.30 13.86Q27.10 13.35 28.14 13.35Q29.19 13.35 29.99 13.85Q30.80 14.35 31.24 15.29Q31.68 16.23 31.68 17.48L31.68 17.48L31.68 17.96Q31.68 19.21 31.25 20.16Q30.82 21.10 30.01 21.61Q29.21 22.12 28.16 22.12L28.16 22.12Q27.12 22.12 26.31 21.61Q25.50 21.10 25.05 20.17Q24.61 19.23 24.61 18.00ZM26.09 17.46L26.09 17.96Q26.09 19.36 26.64 20.13Q27.18 20.90 28.16 20.90L28.16 20.90Q29.14 20.90 29.67 20.15Q30.20 19.40 30.20 17.96L30.20 17.96L30.20 17.51Q30.20 16.09 29.67 15.34Q29.13 14.58 28.14 14.58L28.14 14.58Q27.18 14.58 26.64 15.33Q26.10 16.09 26.09 17.46L26.09 17.46ZM37.53 22L35.56 13.47L37.03 13.47L38.36 19.88L39.99 13.47L41.23 13.47L42.84 19.89L44.15 13.47L45.62 13.47L43.65 22L42.24 22L40.61 15.77L38.96 22L37.53 22ZM55.27 22L49.70 22L49.70 13.47L55.23 13.47L55.23 14.66L51.18 14.66L51.18 17.02L54.68 17.02L54.68 18.19L51.18 18.19L51.18 20.82L55.27 20.82L55.27 22ZM60.95 22L59.47 22L59.47 13.47L62.47 13.47Q63.95 13.47 64.75 14.13Q65.55 14.79 65.55 16.05L65.55 16.05Q65.55 16.90 65.14 17.48Q64.72 18.06 63.99 18.37L63.99 18.37L65.90 21.92L65.90 22L64.31 22L62.60 18.71L60.95 18.71L60.95 22ZM60.95 14.66L60.95 17.52L62.48 17.52Q63.23 17.52 63.65 17.15Q64.07 16.77 64.07 16.11L64.07 16.11Q64.07 15.43 63.68 15.05Q63.29 14.68 62.52 14.66L62.52 14.66L60.95 14.66ZM75.52 22L69.95 22L69.95 13.47L75.48 13.47L75.48 14.66L71.43 14.66L71.43 17.02L74.93 17.02L74.93 18.19L71.43 18.19L71.43 20.82L75.52 20.82L75.52 22ZM82.17 22L79.72 22L79.72 13.47L82.24 13.47Q83.37 13.47 84.25 13.97Q85.12 14.48 85.60 15.40Q86.08 16.33 86.08 17.52L86.08 17.52L86.08 17.95Q86.08 19.16 85.60 20.08Q85.12 21.00 84.22 21.50Q83.33 22 82.17 22L82.17 22ZM81.20 14.66L81.20 20.82L82.17 20.82Q83.33 20.82 83.96 20.09Q84.58 19.36 84.59 17.99L84.59 17.99L84.59 17.52Q84.59 16.13 83.99 15.40Q83.39 14.66 82.24 14.66L82.24 14.66L81.20 14.66ZM99.64 22L96.52 22L96.52 13.47L99.45 13.47Q100.89 13.47 101.65 14.05Q102.41 14.63 102.41 15.78L102.41 15.78Q102.41 16.36 102.09 16.83Q101.77 17.30 101.16 17.56L101.16 17.56Q101.86 17.75 102.23 18.26Q102.61 18.78 102.61 19.51L102.61 19.51Q102.61 20.71 101.84 21.36Q101.07 22 99.64 22L99.64 22ZM98.01 18.15L98.01 20.82L99.65 20.82Q100.35 20.82 100.74 20.47Q101.14 20.13 101.14 19.51L101.14 19.51Q101.14 18.18 99.78 18.15L99.78 18.15L98.01 18.15ZM98.01 14.66L98.01 17.06L99.46 17.06Q100.15 17.06 100.54 16.75Q100.93 16.43 100.93 15.86L100.93 15.86Q100.93 15.23 100.57 14.95Q100.21 14.66 99.45 14.66L99.45 14.66L98.01 14.66ZM109.12 18.86L106.26 13.47L107.90 13.47L109.87 17.51L111.83 13.47L113.47 13.47L110.61 18.86L110.61 22L109.12 22L109.12 18.86Z" fill="#FFFFFF"/><path class="svg__text" d="M143.98 22L139.44 22L139.44 13.60L143.74 13.60Q145.34 13.60 146.18 14.19Q147.03 14.79 147.03 15.79L147.03 15.79Q147.03 16.39 146.73 16.87Q146.43 17.34 145.89 17.62L145.89 17.62Q146.62 17.87 147.02 18.41Q147.43 18.94 147.43 19.70L147.43 19.70Q147.43 20.80 146.54 21.40Q145.65 22 143.98 22L143.98 22ZM141.79 18.58L141.79 20.28L143.79 20.28Q145.03 20.28 145.03 19.43L145.03 19.43Q145.03 18.58 143.79 18.58L143.79 18.58L141.79 18.58ZM141.79 15.31L141.79 16.94L143.42 16.94Q144.62 16.94 144.62 16.12L144.62 16.12Q144.62 15.31 143.42 15.31L143.42 15.31L141.79 15.31ZM158.53 22L152.15 22L152.15 13.60L154.53 13.60L154.53 20.11L158.53 20.11L158.53 22ZM164.37 22L161.94 22L165.65 13.60L168.00 13.60L171.71 22L169.24 22L168.58 20.37L165.03 20.37L164.37 22ZM166.81 15.93L165.72 18.61L167.89 18.61L166.81 15.93ZM175.44 17.80L175.44 17.80Q175.44 16.54 176.04 15.54Q176.63 14.55 177.68 13.99Q178.74 13.43 180.06 13.43L180.06 13.43Q181.21 13.43 182.13 13.84Q183.06 14.25 183.67 15.02L183.67 15.02L182.16 16.39Q181.34 15.40 180.18 15.40L180.18 15.40Q179.49 15.40 178.96 15.70Q178.43 16 178.13 16.54Q177.83 17.09 177.83 17.80L177.83 17.80Q177.83 18.51 178.13 19.05Q178.43 19.60 178.96 19.90Q179.49 20.20 180.18 20.20L180.18 20.20Q181.34 20.20 182.16 19.22L182.16 19.22L183.67 20.58Q183.06 21.35 182.14 21.76Q181.21 22.17 180.06 22.17L180.06 22.17Q178.74 22.17 177.68 21.61Q176.63 21.05 176.04 20.05Q175.44 19.06 175.44 17.80ZM190.56 22L188.21 22L188.21 13.60L190.56 13.60L190.56 17.09L193.81 13.60L196.43 13.60L193.00 17.32L196.61 22L193.85 22L191.45 18.95L190.56 19.90L190.56 22ZM209.89 22L207.69 22L207.69 13.60L209.64 13.60L212.60 18.45L215.48 13.60L217.43 13.60L217.46 22L215.28 22L215.25 17.55L213.09 21.17L212.04 21.17L209.89 17.67L209.89 22ZM224.04 22L221.61 22L225.32 13.60L227.66 13.60L231.38 22L228.91 22L228.25 20.37L224.70 20.37L224.04 22ZM226.47 15.93L225.39 18.61L227.55 18.61L226.47 15.93ZM235.10 17.80L235.10 17.80Q235.10 16.54 235.70 15.54Q236.30 14.55 237.37 13.99Q238.44 13.43 239.78 13.43L239.78 13.43Q240.96 13.43 241.89 13.83Q242.83 14.22 243.45 14.97L243.45 14.97L241.94 16.33Q241.10 15.40 239.92 15.40L239.92 15.40Q239.91 15.40 239.90 15.40L239.90 15.40Q238.82 15.40 238.16 16.06Q237.50 16.71 237.50 17.80L237.50 17.80Q237.50 18.50 237.80 19.04Q238.10 19.59 238.64 19.89Q239.18 20.20 239.88 20.20L239.88 20.20Q240.56 20.20 241.16 19.93L241.16 19.93L241.16 17.62L243.26 17.62L243.26 21.10Q242.54 21.61 241.60 21.89Q240.67 22.17 239.73 22.17L239.73 22.17Q238.41 22.17 237.36 21.61Q236.30 21.05 235.70 20.05Q235.10 19.06 235.10 17.80ZM250.63 22L248.25 22L248.25 13.60L250.63 13.60L250.63 22ZM255.38 17.80L255.38 17.80Q255.38 16.54 255.97 15.54Q256.57 14.55 257.62 13.99Q258.68 13.43 259.99 13.43L259.99 13.43Q261.15 13.43 262.07 13.84Q262.99 14.25 263.61 15.02L263.61 15.02L262.10 16.39Q261.28 15.40 260.12 15.40L260.12 15.40Q259.43 15.40 258.90 15.70Q258.37 16 258.07 16.54Q257.77 17.09 257.77 17.80L257.77 17.80Q257.77 18.51 258.07 19.05Q258.37 19.60 258.90 19.90Q259.43 20.20 260.12 20.20L260.12 20.20Q261.28 20.20 262.10 19.22L262.10 19.22L263.61 20.58Q263.00 21.35 262.07 21.76Q261.15 22.17 259.99 22.17L259.99 22.17Q258.68 22.17 257.62 21.61Q256.57 21.05 255.97 20.05Q255.38 19.06 255.38 17.80Z" fill="#FFFFFF" x="138.25"/></svg>