<svg xmlns="http://www.w3.org/2000/svg" width="309.63" height="35" viewBox="0 0 309.63 35"><rect class="svg__rect" x="0" y="0" width="198.58" height="35" fill="#000000"/><rect class="svg__rect" x="196.58" y="0" width="113.04999999999998" height="35" fill="#5A0099"/><path class="svg__text" d="M13.78 19.42L13.78 19.42L15.27 19.42Q15.27 20.15 15.75 20.55Q16.23 20.95 17.12 20.95L17.12 20.95Q17.90 20.95 18.29 20.63Q18.68 20.32 18.68 19.80L18.68 19.80Q18.68 19.24 18.28 18.94Q17.89 18.63 16.85 18.32Q15.82 18.01 15.21 17.63L15.21 17.63Q14.05 16.90 14.05 15.72L14.05 15.72Q14.05 14.69 14.89 14.02Q15.73 13.35 17.07 13.35L17.07 13.35Q17.96 13.35 18.66 13.68Q19.36 14.01 19.75 14.61Q20.15 15.22 20.15 15.96L20.15 15.96L18.68 15.96Q18.68 15.29 18.26 14.91Q17.84 14.54 17.06 14.54L17.06 14.54Q16.33 14.54 15.93 14.85Q15.53 15.16 15.53 15.71L15.53 15.71Q15.53 16.18 15.96 16.50Q16.40 16.81 17.39 17.10Q18.39 17.40 18.99 17.78Q19.60 18.16 19.88 18.65Q20.16 19.13 20.16 19.79L20.16 19.79Q20.16 20.86 19.34 21.49Q18.52 22.12 17.12 22.12L17.12 22.12Q16.20 22.12 15.42 21.77Q14.64 21.43 14.21 20.83Q13.78 20.22 13.78 19.42ZM25.93 22L24.45 22L24.45 13.47L27.71 13.47Q29.14 13.47 29.98 14.21Q30.82 14.96 30.82 16.18L30.82 16.18Q30.82 17.44 30.00 18.13Q29.18 18.83 27.69 18.83L27.69 18.83L25.93 18.83L25.93 22ZM25.93 14.66L25.93 17.64L27.71 17.64Q28.50 17.64 28.92 17.27Q29.33 16.90 29.33 16.19L29.33 16.19Q29.33 15.50 28.91 15.09Q28.49 14.68 27.75 14.66L27.75 14.66L25.93 14.66ZM40.68 22L35.11 22L35.11 13.47L40.64 13.47L40.64 14.66L36.59 14.66L36.59 17.02L40.09 17.02L40.09 18.19L36.59 18.19L36.59 20.82L40.68 20.82L40.68 22ZM44.61 18.19L44.61 18.19L44.61 17.39Q44.61 16.19 45.04 15.27Q45.47 14.35 46.27 13.85Q47.06 13.35 48.11 13.35L48.11 13.35Q49.53 13.35 50.39 14.12Q51.25 14.89 51.39 16.29L51.39 16.29L49.91 16.29Q49.81 15.37 49.38 14.96Q48.95 14.55 48.11 14.55L48.11 14.55Q47.15 14.55 46.63 15.26Q46.11 15.96 46.10 17.33L46.10 17.33L46.10 18.09Q46.10 19.47 46.59 20.20Q47.09 20.92 48.04 20.92L48.04 20.92Q48.92 20.92 49.36 20.53Q49.80 20.14 49.91 19.22L49.91 19.22L51.39 19.22Q51.26 20.59 50.38 21.35Q49.50 22.12 48.04 22.12L48.04 22.12Q47.02 22.12 46.25 21.63Q45.47 21.15 45.05 20.26Q44.63 19.37 44.61 18.19ZM57.27 22L55.79 22L55.79 13.47L57.27 13.47L57.27 22ZM62.86 22L61.31 22L64.54 13.47L65.87 13.47L69.10 22L67.55 22L66.85 20.01L63.55 20.01L62.86 22ZM65.20 15.28L63.96 18.82L66.44 18.82L65.20 15.28ZM78.41 22L73.05 22L73.05 13.47L74.53 13.47L74.53 20.82L78.41 20.82L78.41 22ZM89.98 22L88.51 22L88.51 13.47L90.43 13.47L92.89 20.01L95.35 13.47L97.26 13.47L97.26 22L95.79 22L95.79 19.19L95.93 15.43L93.41 22L92.35 22L89.84 15.43L89.98 19.19L89.98 22ZM107.58 22L102.00 22L102.00 13.47L107.54 13.47L107.54 14.66L103.48 14.66L103.48 17.02L106.99 17.02L106.99 18.19L103.48 18.19L103.48 20.82L107.58 20.82L107.58 22ZM113.26 22L111.78 22L111.78 13.47L113.26 13.47L117.07 19.54L117.07 13.47L118.54 13.47L118.54 22L117.06 22L113.26 15.95L113.26 22ZM124.97 14.66L122.33 14.66L122.33 13.47L129.10 13.47L129.10 14.66L126.44 14.66L126.44 22L124.97 22L124.97 14.66ZM134.42 22L132.94 22L132.94 13.47L134.42 13.47L134.42 22ZM138.96 18.00L138.96 18.00L138.96 17.52Q138.96 16.28 139.40 15.32Q139.84 14.37 140.65 13.86Q141.45 13.35 142.50 13.35Q143.54 13.35 144.35 13.85Q145.15 14.35 145.59 15.29Q146.03 16.23 146.04 17.48L146.04 17.48L146.04 17.96Q146.04 19.21 145.60 20.16Q145.17 21.10 144.36 21.61Q143.56 22.12 142.51 22.12L142.51 22.12Q141.47 22.12 140.66 21.61Q139.85 21.10 139.41 20.17Q138.96 19.23 138.96 18.00ZM140.44 17.46L140.44 17.96Q140.44 19.36 140.99 20.13Q141.54 20.90 142.51 20.90L142.51 20.90Q143.49 20.90 144.02 20.15Q144.55 19.40 144.55 17.96L144.55 17.96L144.55 17.51Q144.55 16.09 144.02 15.34Q143.48 14.58 142.50 14.58L142.50 14.58Q141.54 14.58 140.99 15.33Q140.45 16.09 140.44 17.46L140.44 17.46ZM151.98 22L150.50 22L150.50 13.47L151.98 13.47L155.80 19.54L155.80 13.47L157.27 13.47L157.27 22L155.79 22L151.98 15.95L151.98 22ZM169.67 14.66L167.03 14.66L167.03 13.47L173.80 13.47L173.80 14.66L171.14 14.66L171.14 22L169.67 22L169.67 14.66ZM177.28 18.00L177.28 18.00L177.28 17.52Q177.28 16.28 177.73 15.32Q178.17 14.37 178.97 13.86Q179.78 13.35 180.82 13.35Q181.87 13.35 182.67 13.85Q183.48 14.35 183.92 15.29Q184.36 16.23 184.36 17.48L184.36 17.48L184.36 17.96Q184.36 19.21 183.93 20.16Q183.49 21.10 182.69 21.61Q181.88 22.12 180.83 22.12L180.83 22.12Q179.80 22.12 178.99 21.61Q178.17 21.10 177.73 20.17Q177.29 19.23 177.28 18.00ZM178.77 17.46L178.77 17.96Q178.77 19.36 179.31 20.13Q179.86 20.90 180.83 20.90L180.83 20.90Q181.82 20.90 182.35 20.15Q182.88 19.40 182.88 17.96L182.88 17.96L182.88 17.51Q182.88 16.09 182.34 15.34Q181.81 14.58 180.82 14.58L180.82 14.58Q179.86 14.58 179.32 15.33Q178.78 16.09 178.77 17.46L178.77 17.46Z" fill="#FFFFFF"/><path class="svg__text" d="M210.34 17.80L210.34 17.80Q210.34 16.54 210.94 15.54Q211.54 14.55 212.59 13.99Q213.64 13.43 214.96 13.43L214.96 13.43Q216.11 13.43 217.03 13.84Q217.96 14.25 218.57 15.02L218.57 15.02L217.06 16.39Q216.25 15.40 215.08 15.40L215.08 15.40Q214.39 15.40 213.86 15.70Q213.33 16 213.03 16.54Q212.74 17.09 212.74 17.80L212.74 17.80Q212.74 18.51 213.03 19.05Q213.33 19.60 213.86 19.90Q214.39 20.20 215.08 20.20L215.08 20.20Q216.25 20.20 217.06 19.22L217.06 19.22L218.57 20.58Q217.96 21.35 217.04 21.76Q216.11 22.17 214.96 22.17L214.96 22.17Q213.64 22.17 212.59 21.61Q211.54 21.05 210.94 20.05Q210.34 19.06 210.34 17.80ZM224.53 22L222.10 22L225.81 13.60L228.15 13.60L231.87 22L229.40 22L228.74 20.37L225.19 20.37L224.53 22ZM226.96 15.93L225.88 18.61L228.04 18.61L226.96 15.93ZM238.40 22L236.02 22L236.02 13.60L242.61 13.60L242.61 15.44L238.40 15.44L238.40 17.28L242.11 17.28L242.11 19.12L238.40 19.12L238.40 22ZM249.59 22L247.21 22L247.21 13.60L253.80 13.60L253.80 15.44L249.59 15.44L249.59 17.28L253.30 17.28L253.30 19.12L249.59 19.12L249.59 22ZM265.14 22L258.39 22L258.39 13.60L264.98 13.60L264.98 15.44L260.75 15.44L260.75 16.85L264.48 16.85L264.48 18.63L260.75 18.63L260.75 20.17L265.14 20.17L265.14 22ZM272.32 22L269.94 22L269.94 13.60L272.32 13.60L272.32 22ZM279.83 22L277.49 22L277.49 13.60L279.45 13.60L283.16 18.07L283.16 13.60L285.49 13.60L285.49 22L283.54 22L279.83 17.52L279.83 22ZM297.39 22L290.65 22L290.65 13.60L297.24 13.60L297.24 15.44L293.00 15.44L293.00 16.85L296.74 16.85L296.74 18.63L293.00 18.63L293.00 20.17L297.39 20.17L297.39 22Z" fill="#FFFFFF" x="209.58"/></svg>